<?xml version="1.0" ?><svg style="enable-background:new 0 0 512 512;" version="1.1" viewBox="0 0 512 512" xml:space="preserve" xmlns="http://www.w3.org/2000/svg" xmlns:xlink="http://www.w3.org/1999/xlink"><g id="_x39__x5F_trees"><g id="XMLID_1565_"><g id="XMLID_1566_"><g id="XMLID_1567_"><g id="XMLID_1674_"><linearGradient gradientTransform="matrix(0.7314 -0.682 0.682 0.7314 -200.8722 372.7662)" gradientUnits="userSpaceOnUse" id="XMLID_2_" x1="312.1426" x2="433.3073" y1="441.355" y2="441.355"><stop offset="0" style="stop-color:#B65F33"/><stop offset="1" style="stop-color:#F8A175"/></linearGradient><rect height="120" id="XMLID_1689_" style="fill:url(#XMLID_2_);" width="53.77" x="345.84" y="381.355"/><linearGradient gradientTransform="matrix(0.7314 -0.682 0.682 0.7314 -232.2299 293.16)" gradientUnits="userSpaceOnUse" id="XMLID_3_" x1="200.453" x2="311.547" y1="441.355" y2="441.355"><stop offset="0" style="stop-color:#B65F33"/><stop offset="1" style="stop-color:#F8A175"/></linearGradient><polygon id="XMLID_1688_" points="276,381.355 276,501.355 236,501.355 236,381.355 245,381.355        267,381.355      " style="fill:url(#XMLID_3_);"/><linearGradient gradientTransform="matrix(0.7314 -0.682 0.682 0.7314 -259.9744 222.7266)" gradientUnits="userSpaceOnUse" id="XMLID_4_" x1="92.1426" x2="213.3073" y1="441.355" y2="441.355"><stop offset="0" style="stop-color:#B65F33"/><stop offset="1" style="stop-color:#F8A175"/></linearGradient><polygon id="XMLID_1687_" points="179.61,381.355 179.61,501.355 125.84,501.355 125.84,381.355        161.34,381.355      " style="fill:url(#XMLID_4_);"/><linearGradient gradientTransform="matrix(0.7314 -0.682 0.682 0.7314 -42.1307 308.3849)" gradientUnits="userSpaceOnUse" id="XMLID_5_" x1="296.0225" x2="422.9862" y1="216.9132" y2="216.9132"><stop offset="0" style="stop-color:#6AD92A"/><stop offset="1" style="stop-color:#ACFF6C"/></linearGradient><path d="M437.45,250.765l-2.42,0.91c-33.76-0.31-34.27-10.77-69.04-10.77       c-29.99,0-34.48,7.79-56.85,10.12l-5.84-24.16l21.53-57.09l1.53,0.58c10.52-3.04,19.11-6.69,39.63-6.69       c20.52,0,29.11,3.65,39.65,6.69l1.39-0.52L437.45,250.765z" id="XMLID_1686_" style="fill:url(#XMLID_5_);"/><linearGradient gradientTransform="matrix(0.7314 -0.682 0.682 0.7314 -104.3935 150.3216)" gradientUnits="userSpaceOnUse" id="XMLID_6_" x1="62.3917" x2="200.0049" y1="216.322" y2="216.322"><stop offset="0" style="stop-color:#6AD92A"/><stop offset="1" style="stop-color:#ACFF6C"/></linearGradient><path d="M187.21,169.765l15.41,40.91l-3.06,12.65l-6.34,26.2       c-14.85-3.15-22.08-8.62-47.23-8.62c-34.75,0-35.26,10.46-69.02,10.77l-2.37-0.89l30.44-80.93l1.32,0.5       c10.52-3.04,19.11-6.69,39.63-6.69s29.11,3.65,39.65,6.69L187.21,169.765z" id="XMLID_1685_" style="fill:url(#XMLID_6_);"/><linearGradient gradientTransform="matrix(0.7314 -0.682 0.682 0.7314 19.5349 280.5923)" gradientUnits="userSpaceOnUse" id="XMLID_7_" x1="298.8559" x2="403.3922" y1="129.3488" y2="129.3488"><stop offset="0" style="stop-color:#40D100"/><stop offset="1" style="stop-color:#82FF3A"/></linearGradient><path d="M366,60.645l41.03,109.19l-1.39,0.52       c-10.54-3.04-19.13-6.69-39.65-6.69c-20.52,0-29.11,3.65-39.63,6.69l-1.53-0.58L366,60.645z" id="XMLID_1684_" style="fill:url(#XMLID_7_);"/><linearGradient gradientTransform="matrix(0.7314 -0.682 0.682 0.7314 -90.7691 341.1891)" gradientUnits="userSpaceOnUse" id="XMLID_8_" x1="315.9235" x2="447.9841" y1="288.3039" y2="288.3039"><stop offset="0" style="stop-color:#40D100"/><stop offset="1" style="stop-color:#82FF3A"/></linearGradient><path d="M365.99,240.905c34.77,0,35.28,10.46,69.04,10.77l2.42-0.91l28.8,76.65       c-6.52,1.58-17.99,3.3-29.68,3.3c-35.28,0-35.28-10.78-70.58-10.78c-19.87,0-28.55,3.42-38.64,6.4l-4.37-18.09l-13.84-57.22       C331.51,248.695,336,240.905,365.99,240.905z" id="XMLID_1683_" style="fill:url(#XMLID_8_);"/><linearGradient gradientTransform="matrix(0.7314 -0.682 0.682 0.7314 -129.8177 371.7285)" gradientUnits="userSpaceOnUse" id="XMLID_9_" x1="337.5204" x2="466.1581" y1="352.9853" y2="352.9853"><stop offset="0" style="stop-color:#6AD92A"/><stop offset="1" style="stop-color:#ACFF6C"/></linearGradient><path d="M436.57,330.715c11.69,0,23.16-1.72,29.68-3.3l20.27,53.94h-86.91       h-53.77h-5.18l-13.31-55.02c10.09-2.98,18.77-6.4,38.64-6.4C401.29,319.935,401.29,330.715,436.57,330.715z" id="XMLID_1682_" style="fill:url(#XMLID_9_);"/><linearGradient gradientTransform="matrix(0.7314 -0.682 0.682 0.7314 -162.7838 158.3693)" gradientUnits="userSpaceOnUse" id="XMLID_10_" x1="37.9262" x2="198.1966" y1="290.4434" y2="290.4434"><stop offset="0" style="stop-color:#40D100"/><stop offset="1" style="stop-color:#82FF3A"/></linearGradient><path d="M75.43,330.715c-11.69,0-22.87-2.44-29.39-4.02l28.56-75.91l2.37,0.89       c33.76-0.31,34.27-10.77,69.02-10.77c25.15,0,32.38,5.47,47.23,8.62l-14.2,58.72l-3.7,15.32c-7.2-1.99-15.59-3.63-29.33-3.63       C110.71,319.935,110.71,330.715,75.43,330.715z" id="XMLID_1681_" style="fill:url(#XMLID_10_);"/><linearGradient gradientTransform="matrix(0.7314 -0.682 0.682 0.7314 -212.1672 162.6721)" gradientUnits="userSpaceOnUse" id="XMLID_11_" x1="24.6628" x2="173.6615" y1="355.3607" y2="355.3607"><stop offset="0" style="stop-color:#6AD92A"/><stop offset="1" style="stop-color:#ACFF6C"/></linearGradient><path d="M75.43,330.715c35.28,0,35.28-10.78,70.56-10.78       c13.74,0,22.13,1.64,29.33,3.63l-13.98,57.79h-35.5H25.48l20.56-54.66C52.56,328.275,63.74,330.715,75.43,330.715z" id="XMLID_1680_" style="fill:url(#XMLID_11_);"/><linearGradient gradientTransform="matrix(0.7314 -0.682 0.682 0.7314 -164.6913 262.6167)" gradientUnits="userSpaceOnUse" id="XMLID_12_" x1="157.4649" x2="325.5418" y1="349.6347" y2="349.6347"><stop offset="0" style="stop-color:#8ADC3F"/><stop offset="1" style="stop-color:#CCFF81"/></linearGradient><path d="M327.35,326.335l13.31,55.02H276h-9h-22h-9h-56.39h-18.27l13.98-57.79       l3.7-15.32l0.13,0.03c4.85,1.76,10.66,3.08,19.35,3.08c26.25,0,26.25-12,52.49-12c26.26,0,26.26,12,52.51,12       c8.69,0,14.5-1.32,19.35-3.08l0.13-0.03L327.35,326.335z" id="XMLID_1679_" style="fill:url(#XMLID_12_);"/><linearGradient gradientTransform="matrix(0.7314 -0.682 0.682 0.7314 -110.8135 241.3936)" gradientUnits="userSpaceOnUse" id="XMLID_13_" x1="166.3783" x2="314.5572" y1="271.599" y2="271.599"><stop offset="0" style="stop-color:#6AD92A"/><stop offset="1" style="stop-color:#ACFF6C"/></linearGradient><path d="M303.3,226.865l5.84,24.16l13.84,57.22l-0.13,0.03       c-4.85,1.76-10.66,3.08-19.35,3.08c-26.25,0-26.25-12-52.51-12c-26.24,0-26.24,12-52.49,12c-8.69,0-14.5-1.32-19.35-3.08       l-0.13-0.03l14.2-58.72l6.34-26.2l0.09,0.02c25.11-0.34,25.49-11.99,51.34-11.99c25.87,0,26.25,11.65,51.36,11.99l0.09-0.02       L303.3,226.865z" id="XMLID_1678_" style="fill:url(#XMLID_13_);"/><linearGradient gradientTransform="matrix(0.7314 -0.682 0.682 0.7314 -51.4762 218.0201)" gradientUnits="userSpaceOnUse" id="XMLID_14_" x1="179.9783" x2="300.9446" y1="184.5312" y2="184.5312"><stop offset="0" style="stop-color:#8ADC3F"/><stop offset="1" style="stop-color:#CCFF81"/></linearGradient><path d="M202.62,210.675l18.84-77.88l0.05,0.01       c7.83-3.39,14.22-7.45,29.48-7.45c15.27,0,21.66,4.06,29.5,7.45l0.05-0.01l21.9,90.53l-0.09,0.02       c-25.11-0.34-25.49-11.99-51.36-11.99c-25.85,0-26.23,11.65-51.34,11.99l-0.09-0.02L202.62,210.675z" id="XMLID_1677_" style="fill:url(#XMLID_14_);"/><linearGradient gradientTransform="matrix(0.7314 -0.682 0.682 0.7314 18.5139 190.4502)" gradientUnits="userSpaceOnUse" id="XMLID_15_" x1="187.7462" x2="292.6565" y1="81.7945" y2="81.7945"><stop offset="0" style="stop-color:#6AD92A"/><stop offset="1" style="stop-color:#ACFF6C"/></linearGradient><path d="M251,10.645l29.54,122.15l-0.05,0.01c-7.84-3.39-14.23-7.45-29.5-7.45       c-15.26,0-21.65,4.06-29.48,7.45l-0.05-0.01L251,10.645z" id="XMLID_1676_" style="fill:url(#XMLID_15_);"/><linearGradient gradientTransform="matrix(0.7314 -0.682 0.682 0.7314 -39.5149 130.6857)" gradientUnits="userSpaceOnUse" id="XMLID_16_" x1="79.0073" x2="183.5324" y1="129.2925" y2="129.2925"><stop offset="0" style="stop-color:#40D100"/><stop offset="1" style="stop-color:#82FF3A"/></linearGradient><path d="M146.12,60.645l41.09,109.12l-1.57,0.59       c-10.54-3.04-19.13-6.69-39.65-6.69s-29.11,3.65-39.63,6.69l-1.32-0.5L146.12,60.645z" id="XMLID_1675_" style="fill:url(#XMLID_16_);"/></g><g id="XMLID_1569_"><g id="XMLID_1673_"><path d="M161.348,391.357c-0.779,0-1.569-0.091-2.359-0.282c-5.368-1.299-8.667-6.703-7.369-12.071        L241.28,8.294c1.085-4.488,5.103-7.649,9.72-7.649s8.635,3.162,9.72,7.649l89.66,370.709c1.299,5.368-2,10.772-7.368,12.071        c-5.367,1.302-10.772-2-12.071-7.368L251,53.188l-79.94,330.52C169.952,388.284,165.858,391.357,161.348,391.357z" id="XMLID_180_"/></g><g id="XMLID_1638_"><path d="M221.515,142.808c-3.866,0-7.548-2.255-9.182-6.029c-2.194-5.068,0.135-10.956,5.204-13.15        c1.04-0.45,2.052-0.914,3.065-1.376c7.078-3.233,15.099-6.897,30.389-6.897c15.291,0,23.314,3.662,30.394,6.892        c1.017,0.464,2.032,0.928,3.075,1.379c5.069,2.192,7.402,8.079,5.21,13.148c-2.192,5.069-8.08,7.401-13.147,5.209        c-1.167-0.505-2.305-1.023-3.441-1.542c-6.228-2.842-11.146-5.087-22.09-5.087c-10.938,0-15.854,2.246-22.078,5.089        c-1.133,0.518-2.266,1.035-3.429,1.538C224.188,142.542,222.841,142.808,221.515,142.808z" id="XMLID_179_"/></g><g id="XMLID_1600_"><path d="M302.353,233.345c-0.046,0-0.093,0-0.139-0.001c-14.473-0.196-22.257-3.754-29.125-6.894        c-6.228-2.847-11.146-5.095-22.099-5.095c-10.938,0-15.854,2.248-22.076,5.093c-6.869,3.141-14.653,6.7-29.129,6.896        c-5.501,0.067-10.06-4.341-10.135-9.863s4.341-10.06,9.863-10.135c10.263-0.139,15.038-2.323,21.083-5.087        c7.078-3.236,15.099-6.904,30.393-6.904c15.306,0,23.332,3.668,30.413,6.905c6.046,2.764,10.821,4.947,21.082,5.086        c5.522,0.075,9.938,4.612,9.863,10.135C312.274,228.957,307.812,233.345,302.353,233.345z" id="XMLID_178_"/></g><g id="XMLID_1599_"><path d="M303.5,321.355c-15.301,0-23.326-3.668-30.406-6.904c-6.229-2.847-11.149-5.096-22.104-5.096        c-10.941,0-15.857,2.248-22.082,5.094c-7.08,3.237-15.104,6.906-30.409,6.906c-8.609,0-15.842-1.169-22.761-3.68        c-5.192-1.884-7.874-7.619-5.99-12.812c1.883-5.192,7.621-7.87,12.811-5.989c3.183,1.155,7.871,2.48,15.939,2.48        c10.949,0,15.866-2.249,22.092-5.096c7.079-3.236,15.102-6.904,30.398-6.904c15.308,0,23.335,3.669,30.417,6.906        c6.228,2.846,11.146,5.094,22.093,5.094c8.068,0,12.756-1.325,15.938-2.48c5.193-1.883,10.928,0.799,12.812,5.989        c1.884,5.191-0.798,10.928-5.989,12.812C319.342,320.187,312.109,321.355,303.5,321.355z" id="XMLID_177_"/></g><g id="XMLID_1598_"><path d="M276,511.355h-40c-5.523,0-10-4.478-10-10v-120c0-5.522,4.477-10,10-10s10,4.478,10,10v110h20v-110        c0-5.522,4.478-10,10-10s10,4.478,10,10v120C286,506.878,281.522,511.355,276,511.355z" id="XMLID_176_"/></g><g id="XMLID_1597_"><path d="M245,391.355h-65.39c-5.523,0-10-4.478-10-10s4.477-10,10-10H245c5.523,0,10,4.478,10,10        S250.523,391.355,245,391.355z" id="XMLID_175_"/></g><g id="XMLID_1583_"><path d="M125.84,391.355H25.48c-3.282,0-6.354-1.61-8.222-4.309c-1.868-2.697-2.293-6.141-1.138-9.212        L136.76,57.124c1.466-3.897,5.194-6.479,9.358-6.479c4.164-0.001,7.893,2.579,9.36,6.476l56.626,150.357        c1.981,5.156-0.592,10.941-5.748,12.921c-5.154,1.98-10.94-0.592-12.921-5.748l-0.15-0.39L146.125,89.035l-106.2,282.32        h85.915c5.523,0,10,4.478,10,10S131.363,391.355,125.84,391.355z" id="XMLID_174_"/></g><g id="XMLID_1582_"><path d="M106.355,180.357c-4.34,0-8.337-2.848-9.602-7.226c-1.533-5.306,1.525-10.85,6.831-12.383        c1.438-0.416,2.838-0.843,4.239-1.27c8.931-2.725,19.054-5.813,38.168-5.813c19.099,0,29.224,3.084,38.157,5.806        c1.409,0.429,2.817,0.859,4.264,1.276c5.306,1.531,8.367,7.073,6.837,12.38c-1.531,5.307-7.075,8.367-12.38,6.837        c-1.543-0.445-3.046-0.903-4.549-1.36c-8.335-2.54-16.209-4.938-32.329-4.938c-16.131,0-24,2.401-32.333,4.942        c-1.494,0.456-2.988,0.911-4.521,1.354C108.209,180.23,107.274,180.357,106.355,180.357z" id="XMLID_173_"/></g><g id="XMLID_1581_"><path d="M76.968,261.675c-5.48,0-9.947-4.417-9.998-9.908c-0.051-5.523,4.385-10.041,9.908-10.091        c15.183-0.139,22.828-2.475,30.922-4.947c8.936-2.729,19.063-5.823,38.19-5.823c19.146,0,29.282,3.096,38.226,5.827        c3.641,1.112,7.08,2.163,11.08,3.011c5.402,1.146,8.853,6.455,7.707,11.857c-1.146,5.402-6.45,8.854-11.857,7.708        c-4.854-1.03-8.879-2.259-12.771-3.448c-8.343-2.548-16.224-4.955-32.384-4.955c-16.14,0-24.012,2.405-32.347,4.951        c-8.674,2.65-18.505,5.653-36.581,5.819C77.031,261.675,76.999,261.675,76.968,261.675z" id="XMLID_172_"/></g><g id="XMLID_1580_"><path d="M75.43,340.715c-13.999,0-27.356-3.237-31.746-4.301c-5.367-1.301-8.664-6.706-7.363-12.074        s6.709-8.661,12.074-7.363c3.815,0.925,15.425,3.738,27.035,3.738c16.146,0,24.021-2.406,32.357-4.954        c8.938-2.73,19.069-5.826,38.203-5.826c15.466,0,24.853,2.019,31.994,3.992c5.323,1.472,8.445,6.979,6.974,12.303        c-1.472,5.323-6.98,8.444-12.303,6.975c-6.143-1.698-13.625-3.27-26.665-3.27c-16.146,0-24.021,2.406-32.358,4.954        C104.694,337.619,94.564,340.715,75.43,340.715z" id="XMLID_171_"/></g><g id="XMLID_1579_"><path d="M179.61,511.355h-53.77c-5.523,0-10-4.478-10-10v-120c0-5.522,4.477-10,10-10h53.77        c5.523,0,10,4.478,10,10v120C189.61,506.878,185.133,511.355,179.61,511.355z M135.84,491.355h33.77v-100h-33.77V491.355z" id="XMLID_168_"/></g><g id="XMLID_1578_"><path d="M486.52,391.355H399.61c-5.522,0-10-4.478-10-10s4.478-10,10-10h72.469L365.981,89.025        l-53.494,141.811c-1.977,5.157-7.761,7.735-12.917,5.756c-5.157-1.977-7.734-7.761-5.757-12.917l0.149-0.39l62.681-166.169        c1.469-3.894,5.195-6.47,9.356-6.47c0.002,0,0.004,0,0.007,0c4.163,0.003,7.89,2.585,9.354,6.482l120.52,320.71        c1.153,3.071,0.728,6.514-1.141,9.211C492.873,389.746,489.801,391.355,486.52,391.355z" id="XMLID_167_"/></g><g id="XMLID_1575_"><path d="M345.84,391.355H245c-5.523,0-10-4.478-10-10s4.477-10,10-10h100.84c5.522,0,10,4.478,10,10        S351.362,391.355,345.84,391.355z" id="XMLID_166_"/></g><g id="XMLID_1574_"><path d="M326.355,180.357c-4.34,0-8.337-2.848-9.602-7.226c-1.534-5.306,1.524-10.85,6.83-12.383        c1.438-0.416,2.838-0.843,4.238-1.27c8.931-2.725,19.054-5.813,38.168-5.813c19.099,0,29.224,3.084,38.156,5.806        c1.409,0.429,2.817,0.859,4.265,1.276c5.307,1.531,8.367,7.073,6.837,12.38c-1.531,5.307-7.076,8.367-12.38,6.837        c-1.543-0.445-3.046-0.903-4.55-1.361c-8.335-2.539-16.208-4.938-32.328-4.938c-16.132,0-24.001,2.401-32.332,4.942        c-1.494,0.456-2.988,0.911-4.521,1.354C328.21,180.23,327.274,180.357,326.355,180.357z" id="XMLID_165_"/></g><g id="XMLID_1573_"><path d="M435.032,261.675c-0.031,0-0.063,0-0.094,0c-18.073-0.166-27.905-3.169-36.58-5.818        c-8.339-2.547-16.216-4.952-32.368-4.952c-16.138,0-24.012,2.404-32.347,4.949c-6.533,1.995-13.288,4.058-23.468,5.117        c-5.51,0.576-10.411-3.417-10.982-8.91c-0.572-5.493,3.417-10.41,8.91-10.982c8.259-0.86,13.816-2.557,19.699-4.353        c8.937-2.729,19.064-5.821,38.188-5.821c19.138,0,29.271,3.094,38.21,5.824c8.095,2.472,15.74,4.807,30.922,4.946        c5.522,0.051,9.958,4.568,9.908,10.091C444.979,257.258,440.512,261.675,435.032,261.675z" id="XMLID_164_"/></g><g id="XMLID_1572_"><path d="M436.57,340.715c-19.131,0-29.262-3.095-38.2-5.825c-8.342-2.548-16.221-4.955-32.38-4.955        c-16.131,0-24.001,2.4-32.334,4.942c-1.152,0.352-2.305,0.703-3.475,1.049c-5.301,1.564-10.859-1.463-12.423-6.759        c-1.563-5.297,1.462-10.858,6.759-12.423c1.113-0.328,2.208-0.662,3.304-0.997c8.932-2.725,19.056-5.813,38.169-5.813        c19.146,0,29.28,3.096,38.223,5.827c8.338,2.548,16.213,4.953,32.357,4.953c10.976,0,21.579-1.626,27.324-3.019        c5.366-1.301,10.773,1.996,12.074,7.363s-1.996,10.773-7.363,12.074C461.462,338.865,449.295,340.715,436.57,340.715z" id="XMLID_163_"/></g><g id="XMLID_1570_"><path d="M399.61,511.355H345.84c-5.522,0-10-4.478-10-10v-120c0-5.522,4.478-10,10-10h53.771        c5.522,0,10,4.478,10,10v120C409.61,506.878,405.133,511.355,399.61,511.355z M355.84,491.355h33.771v-100H355.84V491.355z" id="XMLID_160_"/></g></g></g></g></g></g><g id="Layer_1"/></svg>